<svg xmlns="http://www.w3.org/2000/svg" viewBox="0 0 4943 2472"><filter id="b"><feGaussianBlur stdDeviation="12" /></filter><path d="M0 0h4943v2472H0z" fill="#5b5670" /><g filter="url(#b)" transform="scale(19.308594) translate(0.5 0.5)"><ellipse fill="#f4ffff" fill-opacity=".501961" cx="95" cy="21" rx="255" ry="28" /><g transform="translate(127 111) rotate(178) scale(255 66)"><path d="M0 0h4943v2472H0z" fill="#000" /></g><g transform="translate(152.417877 110.816208) rotate(269.278203) scale(27.223643 255.000000)"><ellipse fill="#000" fill-opacity=".501961" cx="0" cy="0" rx="1" ry="1" /></g><ellipse fill="#f20e38" fill-opacity=".501961" cx="90" cy="80" rx="81" ry="6" /><ellipse fill="#aac0f9" fill-opacity=".501961" cx="99" cy="17" rx="254" ry="27" /><path d="M0 0h4943v2472H0z" fill="#2c1a67" /><g transform="translate(199.377640 0.000000) rotate(9.156325) scale(113.151111 17.093226)"><ellipse fill="#5c95d7" fill-opacity=".501961" cx="0" cy="0" rx="1" ry="1" /></g><g transform="translate(151.820570 110.167461) rotate(90.275725) scale(25.228564 241.765390)"><ellipse fill="#000200" fill-opacity=".501961" cx="0" cy="0" rx="1" ry="1" /></g></g></svg>