<svg xmlns="http://www.w3.org/2000/svg" viewBox="0 0 5581 3721"><filter id="b"><feGaussianBlur stdDeviation="12" /></filter><path d="M0 0h5581v3721H0z" fill="#4a697d" /><g filter="url(#b)" transform="scale(21.800781) translate(0.5 0.5)"><ellipse fill="#63d1ff" fill-opacity=".501961" cx="87" cy="25" rx="255" ry="33" /><g transform="translate(170.525024 134.799308) rotate(277.602077) scale(34.459889 124.189842)"><ellipse fill="#1e0400" fill-opacity=".501961" cx="0" cy="0" rx="1" ry="1" /></g><path fill="#161215" fill-opacity=".501961" d="M135 112-16 74l201-7z" /><g transform="translate(27.250989 152.411861) rotate(243.804708) scale(9.806051 46.866936)"><ellipse fill="#efd9db" fill-opacity=".501961" cx="0" cy="0" rx="1" ry="1" /></g><g transform="translate(7.966629 87.700938) rotate(87.539477) scale(20.571198 37.116967)"><ellipse fill="#000" fill-opacity=".501961" cx="0" cy="0" rx="1" ry="1" /></g><path fill="#dad6e8" fill-opacity=".501961" d="M186 106 164 79l98 10z" /><g transform="translate(110.179346 117.788036) rotate(163.463846) scale(32.957839 6.595827)"><ellipse fill="#bacde3" fill-opacity=".501961" cx="0" cy="0" rx="1" ry="1" /></g><g transform="translate(2.513017 20.673840) rotate(-3.493611) scale(79.321518 40.575371)"><ellipse fill="#93d2f9" fill-opacity=".501961" cx="0" cy="0" rx="1" ry="1" /></g></g></svg>