<svg xmlns="http://www.w3.org/2000/svg" viewBox="0 0 5936 3339"><filter id="b"><feGaussianBlur stdDeviation="12" /></filter><path d="M0 0h5936v3339H0z" fill="#476674" /><g filter="url(#b)" transform="scale(23.187500) translate(0.5 0.5)"><g transform="translate(129.863266 15.410603) rotate(92.047316) scale(35.021411 255.000000)"><ellipse fill="#cff" fill-opacity=".501961" cx="0" cy="0" rx="1" ry="1" /></g><g transform="translate(136.166037 123.391741) rotate(355.145841) scale(255.000000 57.082292)"><ellipse fill="#000200" fill-opacity=".501961" cx="0" cy="0" rx="1" ry="1" /></g><g transform="translate(103.592519 32.293826) rotate(360.583778) scale(176.440819 16.511630)"><ellipse fill="#bad3f3" fill-opacity=".501961" cx="0" cy="0" rx="1" ry="1" /></g><ellipse fill="#185c86" fill-opacity=".501961" cx="88" cy="64" rx="253" ry="16" /><ellipse fill="#3d9ae3" fill-opacity=".501961" cx="177" cy="0" rx="255" ry="19" /><ellipse fill="#000" fill-opacity=".501961" cx="18" cy="138" rx="136" ry="14" /><g transform="translate(220.326549 143.000000) rotate(198.727404) scale(47.372087 24.193478)"><ellipse fill="#010200" fill-opacity=".501961" cx="0" cy="0" rx="1" ry="1" /></g><ellipse fill="#54baea" fill-opacity=".501961" cx="153" cy="75" rx="19" ry="4" /></g></svg>