<svg xmlns="http://www.w3.org/2000/svg" viewBox="0 0 3125 1758"><filter id="b"><feGaussianBlur stdDeviation="12" /></filter><path d="M0 0h3125v1758H0z" fill="#7d7b7e" /><g filter="url(#b)" transform="scale(12.207031) translate(0.5 0.5)"><g transform="translate(72.920989 9.939883) rotate(149.151138) scale(200.272800 40.824674)"><ellipse fill="#13161d" fill-opacity=".501961" cx="0" cy="0" rx="1" ry="1" /></g><path fill="#c5bfbe" fill-opacity=".501961" d="M147 27 250 159 271 21z" /><path fill="#bdb8b7" fill-opacity=".501961" d="M271 143-16 142 54 81z" /><g transform="translate(195.957584 11.933347) rotate(267.414521) scale(12.280500 136.131961)"><ellipse fill="#24282f" fill-opacity=".501961" cx="0" cy="0" rx="1" ry="1" /></g><g transform="translate(133 86) rotate(94) scale(50 13)"><path d="M0 0h3125v1758H0z" fill="#000" /></g><path fill="#bfbbba" fill-opacity=".501961" d="M97.280033 54.763131 51.094414 35.606216 91.750008 31.644214 122.669468 24.064799z" /><path fill="#25282a" fill-opacity=".501961" d="M147 117l15-27 75 9z" /><g transform="translate(105.939831 74.899941) rotate(-125.492127) scale(13.026058 34.326773)"><ellipse fill="#b3aeae" fill-opacity=".501961" cx="0" cy="0" rx="1" ry="1" /></g></g></svg>