<svg xmlns="http://www.w3.org/2000/svg" viewBox="0 0 6000 4000"><filter id="b"><feGaussianBlur stdDeviation="12" /></filter><path d="M0 0h6e3v4e3H0z" fill="#6d6d6d" /><g filter="url(#b)" transform="scale(23.437500) translate(0.5 0.5)"><ellipse fill="#efefef" fill-opacity=".501961" cx="109" cy="9" rx="142" ry="38" /><g transform="translate(217.490394 130.348381) rotate(190.332579) scale(66.089488 111.747470)"><ellipse fill="#1a1a1a" fill-opacity=".501961" cx="0" cy="0" rx="1" ry="1" /></g><g transform="translate(14.335084 76.096970) rotate(85.877271) scale(25.402185 100.070709)"><ellipse fill="#000" fill-opacity=".501961" cx="0" cy="0" rx="1" ry="1" /></g><g transform="translate(97.255384 105.408738) rotate(173.853510) scale(118.798861 12.902481)"><ellipse fill="#cbcbcb" fill-opacity=".501961" cx="0" cy="0" rx="1" ry="1" /></g><ellipse fill="#000" fill-opacity=".501961" cx="60" cy="25" rx="5" ry="40" /><path fill="#cecece" fill-opacity=".501961" d="M64.130913 3.664146 108.14558 48.951508 209.53759 70.997493 172.419438-11.553169z" /><g transform="translate(200.703470 28.123509) rotate(322.053107) scale(10.408058 25.378179)"><ellipse fill="#212121" fill-opacity=".501961" cx="0" cy="0" rx="1" ry="1" /></g><g transform="translate(242.733354 131.533665) rotate(92.803274) scale(71.695293 24.900988)"><ellipse fill="#070707" fill-opacity=".501961" cx="0" cy="0" rx="1" ry="1" /></g></g></svg>