<svg xmlns="http://www.w3.org/2000/svg" viewBox="0 0 3993 5989"><filter id="b"><feGaussianBlur stdDeviation="12" /></filter><path d="M0 0h3993v5989H0z" fill="#373a38" /><g filter="url(#b)" transform="scale(23.394531) translate(0.5 0.5)"><g transform="translate(66.046510 70.881643) rotate(153.923383) scale(41.048550 105.402304)"><ellipse fill="#b0a9a8" fill-opacity=".501961" cx="0" cy="0" rx="1" ry="1" /></g><g transform="translate(59 228) rotate(219) scale(170 114)"><path d="M0 0h3993v5989H0z" fill="#000" /></g><ellipse fill="#000" fill-opacity=".501961" cx="141" cy="25" rx="37" ry="118" /><g transform="translate(80.061153 49.073405) rotate(339.387776) scale(15.067514 63.093033)"><ellipse fill="#b1d3d2" fill-opacity=".501961" cx="0" cy="0" rx="1" ry="1" /></g><ellipse fill="#4f3f38" fill-opacity=".501961" cx="55" cy="125" rx="50" ry="38" /><g transform="translate(69 255) rotate(20) scale(170 77)"><path d="M0 0h3993v5989H0z" fill="#000" /></g><path d="M0 0h3993v5989H0z" fill="#62a8b8" /><path fill="#bea495" fill-opacity=".501961" d="M120.131579 190.056868 93.541726 172.184927 93.914481 132.138781 98.798332 127.277932z" /></g></svg>