<svg xmlns="http://www.w3.org/2000/svg" viewBox="0 0 3138 4000"><filter id="b"><feGaussianBlur stdDeviation="12" /></filter><path d="M0 0h3138v4e3H0z" fill="#656565" /><g filter="url(#b)" transform="scale(15.625000) translate(0.5 0.5)"><g transform="translate(118.435676 204.564633) rotate(-13.736288) scale(196.330962 72.420410)"><ellipse fill="#d8d8d8" fill-opacity=".501961" cx="0" cy="0" rx="1" ry="1" /></g><ellipse fill="#020202" fill-opacity=".501961" cx="76" cy="21" rx="127" ry="127" /><g transform="translate(97.383958 42.533917) rotate(266.525159) scale(107.088003 14.613331)"><ellipse fill="#fff" fill-opacity=".501961" cx="0" cy="0" rx="1" ry="1" /></g><ellipse fill="#000" fill-opacity=".501961" cx="168" cy="64" rx="57" ry="57" /><g transform="translate(28.030594 46.560623) rotate(108.501647) scale(105.844021 48.199171)"><ellipse fill="#000" fill-opacity=".501961" cx="0" cy="0" rx="1" ry="1" /></g><path d="M0 0h3138v4e3H0z" fill="#f7f7f7" /><path fill="#d2d2d2" fill-opacity=".501961" d="M112-16 67 60l44 76z" /><g transform="translate(16.357694 154.926214) rotate(82.984942) scale(8.728127 33.980577)"><ellipse fill="#fff" fill-opacity=".501961" cx="0" cy="0" rx="1" ry="1" /></g></g></svg>