<svg xmlns="http://www.w3.org/2000/svg" viewBox="0 0 5668 3779"><filter id="b"><feGaussianBlur stdDeviation="12" /></filter><path d="M0 0h5668v3779H0z" fill="#676767" /><g filter="url(#b)" transform="scale(22.140625) translate(0.5 0.5)"><g transform="translate(100.301061 0.000000) rotate(175.814979) scale(255.000000 21.915057)"><ellipse fill="#000" fill-opacity=".501961" cx="0" cy="0" rx="1" ry="1" /></g><g transform="translate(54.627716 97.019862) rotate(336.711560) scale(21.517785 65.043001)"><ellipse fill="#c7c7c7" fill-opacity=".501961" cx="0" cy="0" rx="1" ry="1" /></g><ellipse fill="#cdcdcd" fill-opacity=".501961" cx="108" cy="51" rx="31" ry="31" /><ellipse fill="#aaa" fill-opacity=".501961" cx="193" cy="47" rx="115" ry="29" /><g transform="translate(25.250660 144.542230) rotate(100.199668) scale(42.454826 27.514979)"><ellipse fill="#0b0b0b" fill-opacity=".501961" cx="0" cy="0" rx="1" ry="1" /></g><g transform="translate(167.057224 119.076402) rotate(34.883991) scale(34.189248 9.939917)"><ellipse fill="#fff" fill-opacity=".501961" cx="0" cy="0" rx="1" ry="1" /></g><g transform="translate(221.340754 154.825702) rotate(236.149282) scale(30.427106 115.384047)"><ellipse fill="#161616" fill-opacity=".501961" cx="0" cy="0" rx="1" ry="1" /></g><path fill="#0e0e0e" fill-opacity=".501961" d="M140 185 136 70 64 184z" /></g></svg>