<svg xmlns="http://www.w3.org/2000/svg" viewBox="0 0 5381 3027"><filter id="b"><feGaussianBlur stdDeviation="12" /></filter><path d="M0 0h5381v3027H0z" fill="#2b3a27" /><g filter="url(#b)" transform="scale(21.019531) translate(0.5 0.5)"><path fill="#646a51" fill-opacity=".501961" d="M271 99 114 154 101 19z" /><g transform="translate(21.808213 99.661474) rotate(192.109126) scale(77.819901 103.032814)"><ellipse fill="#001511" fill-opacity=".501961" cx="0" cy="0" rx="1" ry="1" /></g><ellipse fill="#000" fill-opacity=".501961" cx="161" cy="99" rx="255" ry="5" /><path fill="#99845c" fill-opacity=".501961" d="M156 45l88 49-90-6z" /><g transform="translate(226.255569 45.134703) rotate(147.669970) scale(49.571901 19.659414)"><ellipse fill="#100f08" fill-opacity=".501961" cx="0" cy="0" rx="1" ry="1" /></g><ellipse fill="#29666c" fill-opacity=".501961" cx="71" cy="61" rx="5" ry="143" /><g transform="translate(132.997133 0.000000) rotate(175.872985) scale(70.283442 41.702797)"><ellipse fill="#4e5924" fill-opacity=".501961" cx="0" cy="0" rx="1" ry="1" /></g><g transform="translate(47.095115 55.987707) rotate(308.127816) scale(20.103305 25.538963)"><ellipse fill="#495721" fill-opacity=".501961" cx="0" cy="0" rx="1" ry="1" /></g></g></svg>