<svg xmlns="http://www.w3.org/2000/svg" viewBox="0 0 5118 3412"><filter id="b"><feGaussianBlur stdDeviation="12" /></filter><path d="M0 0h5118v3412H0z" fill="#5b5f5f" /><g filter="url(#b)" transform="scale(19.992188) translate(0.5 0.5)"><path fill="#000" fill-opacity=".501961" d="M10 89 252 45-16 18z" /><g transform="translate(218.013636 167.798307) rotate(181.047655) scale(159.468402 23.619417)"><ellipse fill="#ffeee1" fill-opacity=".501961" cx="0" cy="0" rx="1" ry="1" /></g><g transform="translate(175 0) rotate(182) scale(147 40)"><path d="M0 0h5118v3412H0z" fill="#f9feff" /></g><g transform="translate(132.177591 91.216908) rotate(366.881951) scale(16.183478 27.301901)"><ellipse fill="#8ff" fill-opacity=".501961" cx="0" cy="0" rx="1" ry="1" /></g><path fill="#000" fill-opacity=".501961" d="M18 89-16 178l79-2z" /><g transform="translate(225.340857 105.013711) rotate(114.206881) scale(23.815519 38.749853)"><ellipse fill="#000c12" fill-opacity=".501961" cx="0" cy="0" rx="1" ry="1" /></g><path d="M0 0h5118v3412H0z" fill="#fff3de" /><ellipse fill="#030102" fill-opacity=".501961" cx="23" cy="53" rx="133" ry="24" /></g></svg>