<svg xmlns="http://www.w3.org/2000/svg" viewBox="0 0 5383 3028"><filter id="b"><feGaussianBlur stdDeviation="12" /></filter><path d="M0 0h5383v3028H0z" fill="#363636" /><g filter="url(#b)" transform="scale(21.027344) translate(0.5 0.5)"><g transform="translate(140.408610 86.009858) rotate(111.745573) scale(12.639890 38.190998)"><ellipse fill="#e7e7e7" fill-opacity=".501961" cx="0" cy="0" rx="1" ry="1" /></g><path d="M0 0h5383v3028H0z" fill="#fff" /><ellipse fill="#060606" fill-opacity=".501961" cx="220" cy="54" rx="47" ry="47" /><g transform="translate(24.430913 138.138366) rotate(131.820760) scale(30.197790 50.390457)"><ellipse fill="#848484" fill-opacity=".501961" cx="0" cy="0" rx="1" ry="1" /></g><g transform="translate(161.538815 124.397586) rotate(365.959421) scale(84.721614 22.865698)"><ellipse fill="#050505" fill-opacity=".501961" cx="0" cy="0" rx="1" ry="1" /></g><path d="M0 0h5383v3028H0z" fill="#dfdfdf" /><g transform="translate(200.660078 102.652425) rotate(275.784680) scale(3.928173 72.011151)"><ellipse fill="#d0d0d0" fill-opacity=".501961" cx="0" cy="0" rx="1" ry="1" /></g><path fill="#afafaf" fill-opacity=".501961" d="M36.015637 4.364331-8.684996 26.120012-9.548091-16 74.194822 4.490121z" /></g></svg>