<svg xmlns="http://www.w3.org/2000/svg" viewBox="0 0 4789 3193"><filter id="b"><feGaussianBlur stdDeviation="12" /></filter><path d="M0 0h4789v3193H0z" fill="#555553" /><g filter="url(#b)" transform="scale(18.707031) translate(0.5 0.5)"><g transform="translate(0.000000 76.950975) rotate(117.619061) scale(255.000000 59.968144)"><ellipse fill="#d0bcbc" fill-opacity=".501961" cx="0" cy="0" rx="1" ry="1" /></g><g transform="translate(227.044211 130.169473) rotate(80.898122) scale(222.293067 55.771850)"><ellipse fill="#000a07" fill-opacity=".501961" cx="0" cy="0" rx="1" ry="1" /></g><ellipse fill="#faccb4" fill-opacity=".501961" cx="145" cy="115" rx="31" ry="25" /><path fill="#000" fill-opacity=".501961" d="M80 117l20 68 129-19z" /><path d="M0 0h4789v3193H0z" fill="#ffe9cc" /><ellipse fill="#a29796" fill-opacity=".501961" cx="122" cy="8" rx="28" ry="40" /><g transform="translate(1.921678 17.066747) rotate(189.196250) scale(52.018427 33.555569)"><ellipse fill="#d7bebc" fill-opacity=".501961" cx="0" cy="0" rx="1" ry="1" /></g><g transform="translate(34.057854 148.362218) rotate(281.098821) scale(102.522851 27.312368)"><ellipse fill="#757476" fill-opacity=".501961" cx="0" cy="0" rx="1" ry="1" /></g></g></svg>