<svg xmlns="http://www.w3.org/2000/svg" viewBox="0 0 3630 2042"><filter id="b"><feGaussianBlur stdDeviation="12" /></filter><path d="M0 0h3630v2042H0z" fill="#828282" /><g filter="url(#b)" transform="scale(14.179688) translate(0.5 0.5)"><g transform="translate(108.880326 78.709801) rotate(162.608245) scale(77.234952 19.649355)"><ellipse fill="#000" fill-opacity=".501961" cx="0" cy="0" rx="1" ry="1" /></g><g transform="translate(72.366024 28.408139) rotate(168.016943) scale(140.696349 35.513122)"><ellipse fill="#b6b6b6" fill-opacity=".501961" cx="0" cy="0" rx="1" ry="1" /></g><g transform="translate(160.517824 93.608680) rotate(182.381135) scale(45.363239 9.784296)"><ellipse fill="#0b0b0b" fill-opacity=".501961" cx="0" cy="0" rx="1" ry="1" /></g><path fill="#000" fill-opacity=".501961" d="M109 88 93 58l88-5z" /><path fill="#b0b0b0" fill-opacity=".501961" d="M254 98 127 159-16 120z" /><path fill="#a2a2a2" fill-opacity=".501961" d="M103.416603 81.98058 74.282775 40.525341 82.206127 104.903684 108.175531 103.234317z" /><g transform="translate(30.844252 96.225704) rotate(279.913451) scale(7.026104 62.557279)"><ellipse fill="#1b1b1b" fill-opacity=".501961" cx="0" cy="0" rx="1" ry="1" /></g><path fill="#080808" fill-opacity=".501961" d="M174 54l-50 53 39-74z" /></g></svg>