<svg xmlns="http://www.w3.org/2000/svg" viewBox="0 0 4000 6000"><filter id="b"><feGaussianBlur stdDeviation="12" /></filter><path d="M0 0h4e3v6e3H0z" fill="#08101d" /><g filter="url(#b)" transform="scale(23.437500) translate(0.5 0.5)"><g transform="translate(56.714849 127.167335) rotate(182.967590) scale(88.207253 56.718727)"><ellipse fill="#1e3455" fill-opacity=".501961" cx="0" cy="0" rx="1" ry="1" /></g><g transform="translate(86 224) rotate(-4) scale(169 81)"><path d="M0 0h4e3v6e3H0z" fill="#000" /></g><g transform="translate(77.358068 179.884756) rotate(52.167633) scale(22.349452 25.420904)"><ellipse fill="#36312c" fill-opacity=".501961" cx="0" cy="0" rx="1" ry="1" /></g><g transform="translate(96.300235 17.464579) rotate(368.716554) scale(169.000000 31.039206)"><ellipse fill="#000005" fill-opacity=".501961" cx="0" cy="0" rx="1" ry="1" /></g><g transform="translate(127.007509 106.116117) rotate(17.225845) scale(142.549903 30.442683)"><ellipse fill="#051c3d" fill-opacity=".501961" cx="0" cy="0" rx="1" ry="1" /></g><g transform="translate(122.904539 227.337011) rotate(152.922220) scale(166.110436 41.191447)"><ellipse fill="#000" fill-opacity=".501961" cx="0" cy="0" rx="1" ry="1" /></g><path fill="#1d2f4d" fill-opacity=".501961" d="M113 107-16 181-3 84z" /><g transform="translate(17.206585 216.159996) rotate(183.565134) scale(20.763268 51.874399)"><ellipse fill="#020000" fill-opacity=".501961" cx="0" cy="0" rx="1" ry="1" /></g></g></svg>