<svg xmlns="http://www.w3.org/2000/svg" viewBox="0 0 5989 3369"><filter id="b"><feGaussianBlur stdDeviation="12" /></filter><path d="M0 0h5989v3369H0z" fill="#4e839d" /><g filter="url(#b)" transform="scale(23.394531) translate(0.5 0.5)"><g transform="translate(100.428106 28.615766) rotate(78.114681) scale(37.571638 184.437935)"><ellipse fill="#a1cdff" fill-opacity=".501961" cx="0" cy="0" rx="1" ry="1" /></g><g transform="translate(183.650033 126.468073) rotate(185.177819) scale(133.690852 56.807978)"><ellipse fill="#00392e" fill-opacity=".501961" cx="0" cy="0" rx="1" ry="1" /></g><ellipse fill="#4a271a" fill-opacity=".501961" cx="146" cy="83" rx="159" ry="10" /><g transform="translate(21.096364 63.175182) rotate(93.059399) scale(14.747168 59.251475)"><ellipse fill="#e9e5df" fill-opacity=".501961" cx="0" cy="0" rx="1" ry="1" /></g><g transform="translate(178 10) rotate(339) scale(20 93)"><path d="M0 0h5989v3369H0z" fill="#006aca" /></g><g transform="translate(53 125) rotate(246) scale(42 112)"><path d="M0 0h5989v3369H0z" fill="#1886a6" /></g><g transform="translate(90.364679 13.205210) rotate(296.828486) scale(15.382173 71.276402)"><ellipse fill="#2b83d8" fill-opacity=".501961" cx="0" cy="0" rx="1" ry="1" /></g><g transform="translate(219.061687 52.558645) rotate(80.746470) scale(17.155494 44.849946)"><ellipse fill="#6aa6e6" fill-opacity=".501961" cx="0" cy="0" rx="1" ry="1" /></g></g></svg>