<svg xmlns="http://www.w3.org/2000/svg" viewBox="0 0 4061 2707"><filter id="b"><feGaussianBlur stdDeviation="12" /></filter><path d="M0 0h4061v2707H0z" fill="#323f54" /><g filter="url(#b)" transform="scale(15.863281) translate(0.5 0.5)"><g transform="translate(96.765424 93.761935) rotate(79.016238) scale(47.182689 35.330661)"><ellipse fill="#fff" fill-opacity=".501961" cx="0" cy="0" rx="1" ry="1" /></g><g transform="translate(210.528603 35.771258) rotate(105.711463) scale(54.170912 21.397505)"><ellipse fill="#a1d9ff" fill-opacity=".501961" cx="0" cy="0" rx="1" ry="1" /></g><g transform="translate(25.355673 54.199777) rotate(89.918222) scale(182.327062 33.588531)"><ellipse fill="#000100" fill-opacity=".501961" cx="0" cy="0" rx="1" ry="1" /></g><ellipse fill="#090718" fill-opacity=".501961" cx="226" cy="151" rx="101" ry="92" /><g transform="translate(96.494428 92.184585) rotate(175.391208) scale(24.289949 47.639583)"><ellipse fill="#c7e1ff" fill-opacity=".501961" cx="0" cy="0" rx="1" ry="1" /></g><path fill="#91b2ff" fill-opacity=".501961" d="M207 98 234-16 177 47z" /><g transform="translate(126.916718 16.295317) rotate(173.518885) scale(75.575417 26.778326)"><ellipse fill="#000d12" fill-opacity=".501961" cx="0" cy="0" rx="1" ry="1" /></g><path fill="#000004" fill-opacity=".501961" d="M135 1e2 112 74l54-21z" /></g></svg>