<svg xmlns="http://www.w3.org/2000/svg" viewBox="0 0 6000 3375"><filter id="b"><feGaussianBlur stdDeviation="12" /></filter><path d="M0 0h6e3v3375H0z" fill="#667585" /><g filter="url(#b)" transform="scale(23.437500) translate(0.5 0.5)"><g transform="translate(103.505350 19.141005) rotate(181.637970) scale(255.000000 33.861433)"><ellipse fill="#fbffff" fill-opacity=".501961" cx="0" cy="0" rx="1" ry="1" /></g><g transform="translate(156.081723 143.000000) rotate(173.258483) scale(248.604430 45.829331)"><ellipse fill="#000" fill-opacity=".501961" cx="0" cy="0" rx="1" ry="1" /></g><g transform="translate(80.860637 72.326624) rotate(180.282138) scale(151.227881 10.842810)"><ellipse fill="#000f2c" fill-opacity=".501961" cx="0" cy="0" rx="1" ry="1" /></g><ellipse fill="#000002" fill-opacity=".501961" cx="15" cy="137" rx="255" ry="27" /><g transform="translate(121.425403 98.401639) rotate(107.970046) scale(16.850710 34.683843)"><ellipse fill="#d0d7e5" fill-opacity=".501961" cx="0" cy="0" rx="1" ry="1" /></g><g transform="translate(17.003493 33.127614) rotate(165.561916) scale(84.938186 26.893620)"><ellipse fill="#dbe7f8" fill-opacity=".501961" cx="0" cy="0" rx="1" ry="1" /></g><g transform="translate(241 49) rotate(25) scale(70 41)"><path d="M0 0h6e3v3375H0z" fill="#dde7fa" /></g><path fill="#000716" fill-opacity=".501961" d="M86 85 11 119 56 64z" /></g></svg>