<svg xmlns="http://www.w3.org/2000/svg" viewBox="0 0 6000 3375"><filter id="b"><feGaussianBlur stdDeviation="12" /></filter><path d="M0 0h6e3v3375H0z" fill="#5c5c5c" /><g filter="url(#b)" transform="scale(23.437500) translate(0.5 0.5)"><g transform="translate(144.619127 27.084153) rotate(14.726203) scale(43.072621 70.252480)"><ellipse fill="#fff" fill-opacity=".501961" cx="0" cy="0" rx="1" ry="1" /></g><g transform="translate(221.782349 85.264173) rotate(-16.541054) scale(80.377735 39.977296)"><ellipse fill="#000" fill-opacity=".501961" cx="0" cy="0" rx="1" ry="1" /></g><path fill="#fff" fill-opacity=".501961" d="M185-16H29L189 75z" /><g transform="translate(32.237039 87.605921) rotate(0.734227) scale(78.641426 46.015134)"><ellipse fill="#111" fill-opacity=".501961" cx="0" cy="0" rx="1" ry="1" /></g><g transform="translate(210.184380 56.058384) rotate(95.837972) scale(63.739585 21.884625)"><ellipse fill="#000" fill-opacity=".501961" cx="0" cy="0" rx="1" ry="1" /></g><path d="M0 0h6e3v3375H0z" fill="#000" /><path d="M0 0h6e3v3375H0z" fill="#f5f5f5" /><path d="M0 0h6e3v3375H0z" fill="#121212" /></g></svg>