<svg xmlns="http://www.w3.org/2000/svg" viewBox="0 0 4255 2837"><filter id="b"><feGaussianBlur stdDeviation="12" /></filter><path d="M0 0h4255v2837H0z" fill="#554e47" /><g filter="url(#b)" transform="scale(16.621094) translate(0.5 0.5)"><path fill="#000" fill-opacity=".501961" d="M129 9 271 185 71 133z" /><ellipse fill="#e4e1de" fill-opacity=".501961" cx="202" cy="22" rx="59" ry="35" /><g transform="translate(13.558766 84.630849) rotate(139.646070) scale(28.997570 100.738437)"><ellipse fill="#d5d0ca" fill-opacity=".501961" cx="0" cy="0" rx="1" ry="1" /></g><ellipse fill="#d6c6c0" fill-opacity=".501961" cx="66" cy="20" rx="59" ry="32" /><g transform="translate(200.826139 125.495227) rotate(106.992847) scale(56.500353 151.417842)"><ellipse fill="#000" fill-opacity=".501961" cx="0" cy="0" rx="1" ry="1" /></g><g transform="translate(65.175223 40.035393) rotate(110.716871) scale(44.834622 11.435960)"><ellipse fill="#190100" fill-opacity=".501961" cx="0" cy="0" rx="1" ry="1" /></g><g transform="translate(111.560587 169.000000) rotate(312.639286) scale(14.032607 50.677238)"><ellipse fill="#afb5b4" fill-opacity=".501961" cx="0" cy="0" rx="1" ry="1" /></g><g transform="translate(6.564769 162.837775) rotate(23.321121) scale(127.772755 17.401552)"><ellipse fill="#000" fill-opacity=".501961" cx="0" cy="0" rx="1" ry="1" /></g></g></svg>