<svg xmlns="http://www.w3.org/2000/svg" viewBox="0 0 5977 3362"><filter id="b"><feGaussianBlur stdDeviation="12" /></filter><path d="M0 0h5977v3362H0z" fill="#606060" /><g filter="url(#b)" transform="scale(23.347656) translate(0.5 0.5)"><g transform="translate(128.149468 3.830996) rotate(278.967618) scale(29.809594 255.000000)"><ellipse fill="#fff" fill-opacity=".501961" cx="0" cy="0" rx="1" ry="1" /></g><g transform="translate(95.090270 85.418782) rotate(270.595927) scale(37.601501 196.082172)"><ellipse fill="#000" fill-opacity=".501961" cx="0" cy="0" rx="1" ry="1" /></g><path fill="#fff" fill-opacity=".501961" d="M271 60 254-16 31 4z" /><path fill="#000" fill-opacity=".501961" d="M11 22l101 3 20 39z" /><g transform="translate(5.090270 38.004585) rotate(275.595194) scale(6.176085 51.098079)"><ellipse fill="#fff" fill-opacity=".501961" cx="0" cy="0" rx="1" ry="1" /></g><g transform="translate(144.599558 39.828872) rotate(335.257379) scale(24.732884 11.340039)"><ellipse fill="#fff" fill-opacity=".501961" cx="0" cy="0" rx="1" ry="1" /></g><ellipse fill="#f6f6f6" fill-opacity=".501961" cx="0" cy="0" rx="248" ry="22" /><path d="M0 0h5977v3362H0z" fill="#1e1e1e" /></g></svg>