<svg xmlns="http://www.w3.org/2000/svg" viewBox="0 0 3565 5300"><filter id="b"><feGaussianBlur stdDeviation="12" /></filter><path d="M0 0h3565v53e2H0z" fill="#717c95" /><g filter="url(#b)" transform="scale(20.703125) translate(0.5 0.5)"><g transform="translate(130.896582 72.025311) rotate(231.345929) scale(123.228416 74.393558)"><ellipse fill="#eafaff" fill-opacity=".501961" cx="0" cy="0" rx="1" ry="1" /></g><g transform="translate(73.129228 240.379760) rotate(135.231715) scale(84.425523 166.134408)"><ellipse fill="#120000" fill-opacity=".501961" cx="0" cy="0" rx="1" ry="1" /></g><g transform="translate(26.767024 66.999247) rotate(118.157664) scale(30.645646 127.100472)"><ellipse fill="#2a93f0" fill-opacity=".501961" cx="0" cy="0" rx="1" ry="1" /></g><g transform="translate(50.569838 239.229352) rotate(99.029247) scale(26.781632 171.000000)"><ellipse fill="#000" fill-opacity=".501961" cx="0" cy="0" rx="1" ry="1" /></g><path fill="#7d7b90" fill-opacity=".501961" d="M-16 191l90-65L182 228z" /><g transform="translate(128.020411 33.231938) rotate(40.772082) scale(71.463590 41.561591)"><ellipse fill="#ffedf2" fill-opacity=".501961" cx="0" cy="0" rx="1" ry="1" /></g><g transform="translate(13.488980 32.888753) rotate(200.570147) scale(24.134935 73.527957)"><ellipse fill="#0079dd" fill-opacity=".501961" cx="0" cy="0" rx="1" ry="1" /></g><g transform="translate(139.191197 186.613959) rotate(203.901975) scale(102.653320 14.229322)"><ellipse fill="#2b303d" fill-opacity=".501961" cx="0" cy="0" rx="1" ry="1" /></g></g></svg>