<svg xmlns="http://www.w3.org/2000/svg" viewBox="0 0 6000 4000"><filter id="b"><feGaussianBlur stdDeviation="12" /></filter><path d="M0 0h6e3v4e3H0z" fill="#42322c" /><g filter="url(#b)" transform="scale(23.437500) translate(0.5 0.5)"><g transform="translate(55.723224 136.709905) rotate(147.430436) scale(84.323901 35.583435)"><ellipse fill="#848478" fill-opacity=".501961" cx="0" cy="0" rx="1" ry="1" /></g><g transform="translate(255.000000 143.596901) rotate(52.363619) scale(56.771338 23.835195)"><ellipse fill="#7db0e6" fill-opacity=".501961" cx="0" cy="0" rx="1" ry="1" /></g><g transform="translate(56 24) rotate(293) scale(94 115)"><path d="M0 0h6e3v4e3H0z" fill="#270000" /></g><g transform="translate(224.652660 8.902102) rotate(423.833054) scale(93.804874 52.202041)"><ellipse fill="#000" fill-opacity=".501961" cx="0" cy="0" rx="1" ry="1" /></g><path fill="#89928c" fill-opacity=".501961" d="M180 29 161 129l54-17z" /><ellipse fill="#1f0000" fill-opacity=".501961" cx="150" cy="7" rx="255" ry="26" /><g transform="translate(164.990266 150.557822) rotate(12.176941) scale(64.386139 18.023842)"><ellipse fill="#150600" fill-opacity=".501961" cx="0" cy="0" rx="1" ry="1" /></g><g transform="translate(25.362324 93.626116) rotate(332.503796) scale(31.589254 21.901144)"><ellipse fill="#79746b" fill-opacity=".501961" cx="0" cy="0" rx="1" ry="1" /></g></g></svg>