<svg xmlns="http://www.w3.org/2000/svg" viewBox="0 0 6000 3375"><filter id="b"><feGaussianBlur stdDeviation="12" /></filter><path d="M0 0h6e3v3375H0z" fill="#484431" /><g filter="url(#b)" transform="scale(23.437500) translate(0.5 0.5)"><path fill="#917f62" fill-opacity=".501961" d="M194.274662 31.737597 134.494672 36.099982 46.580987 46.508867 57.977006 129.728303z" /><g transform="translate(153.922369 5.610204) rotate(268.155986) scale(21.196373 155.790557)"><ellipse fill="#171d0a" fill-opacity=".501961" cx="0" cy="0" rx="1" ry="1" /></g><g transform="translate(185.583557 76.363371) rotate(247.975752) scale(23.331415 14.732452)"><ellipse fill="#000002" fill-opacity=".501961" cx="0" cy="0" rx="1" ry="1" /></g><g transform="translate(23.553537 43.880077) rotate(-8.989720) scale(28.068320 17.452807)"><ellipse fill="#060d06" fill-opacity=".501961" cx="0" cy="0" rx="1" ry="1" /></g><path fill="#feac77" fill-opacity=".501961" d="M134.483329 35.293339 165.393925 48.193578 135.508054 61.48945 149.075537 76.473673z" /><g transform="translate(65.502504 121.563975) rotate(-48.827282) scale(40.838020 75.326788)"><ellipse fill="#5f5c47" fill-opacity=".501961" cx="0" cy="0" rx="1" ry="1" /></g><g transform="translate(133 106) rotate(40) scale(44 31)"><path d="M0 0h6e3v3375H0z" fill="#14110a" /></g><g transform="translate(252 18) rotate(285) scale(54 62)"><path d="M0 0h6e3v3375H0z" fill="#171a1d" /></g></g></svg>