<svg xmlns="http://www.w3.org/2000/svg" viewBox="0 0 4000 4529"><filter id="b"><feGaussianBlur stdDeviation="12" /></filter><path d="M0 0h4e3v4529H0z" fill="#666b77" /><g filter="url(#b)" transform="scale(17.691406) translate(0.5 0.5)"><g transform="translate(104.059711 234.020130) rotate(-1.608310) scale(225.000000 46.140430)"><ellipse fill="#151405" fill-opacity=".501961" cx="0" cy="0" rx="1" ry="1" /></g><g transform="translate(126.887793 54.401302) rotate(237.150416) scale(78.902797 114.510845)"><ellipse fill="#a1a8c0" fill-opacity=".501961" cx="0" cy="0" rx="1" ry="1" /></g><g transform="translate(14.229811 186.659376) rotate(-1.821351) scale(21.050190 52.403594)"><ellipse fill="#221926" fill-opacity=".501961" cx="0" cy="0" rx="1" ry="1" /></g><g transform="translate(190.335446 166.464973) rotate(48.258194) scale(95.804545 21.358647)"><ellipse fill="#3a3842" fill-opacity=".501961" cx="0" cy="0" rx="1" ry="1" /></g><g transform="translate(150.068288 20.062802) rotate(319.356614) scale(75.381593 21.630429)"><ellipse fill="#b3b9c9" fill-opacity=".501961" cx="0" cy="0" rx="1" ry="1" /></g><g transform="translate(84.482985 166.060561) rotate(247.497612) scale(70.443237 25.809229)"><ellipse fill="#827a84" fill-opacity=".501961" cx="0" cy="0" rx="1" ry="1" /></g><g transform="translate(12.851600 74.989432) rotate(95.463843) scale(55.087423 6.389325)"><ellipse fill="#9aafd6" fill-opacity=".501961" cx="0" cy="0" rx="1" ry="1" /></g><g transform="translate(37.405107 3.494610) rotate(154.076652) scale(63.831937 40.177563)"><ellipse fill="#426998" fill-opacity=".501961" cx="0" cy="0" rx="1" ry="1" /></g></g></svg>