<svg xmlns="http://www.w3.org/2000/svg" viewBox="0 0 2997 2997"><filter id="b"><feGaussianBlur stdDeviation="12" /></filter><path d="M0 0h2997v2997H0z" fill="#2d2d2d" /><g filter="url(#b)" transform="scale(11.707031) translate(0.5 0.5)"><g transform="translate(119.349268 204.145660) rotate(8.256959) scale(63.927921 130.457790)"><ellipse fill="#000" fill-opacity=".501961" cx="0" cy="0" rx="1" ry="1" /></g><g transform="translate(226 204) rotate(344) scale(79 116)"><path d="M0 0h2997v2997H0z" fill="#777" /></g><g transform="translate(59.966261 77.274861) rotate(200.863502) scale(55.501426 98.434075)"><ellipse fill="#595959" fill-opacity=".501961" cx="0" cy="0" rx="1" ry="1" /></g><ellipse fill="#000" fill-opacity=".501961" cx="122" cy="226" rx="70" ry="70" /><g transform="translate(12.482833 246.101318) rotate(328.081318) scale(46.752309 30.701515)"><ellipse fill="#6a6a6a" fill-opacity=".501961" cx="0" cy="0" rx="1" ry="1" /></g><g transform="translate(207.191563 20.005017) rotate(83.153443) scale(20.644211 137.285399)"><ellipse fill="#565656" fill-opacity=".501961" cx="0" cy="0" rx="1" ry="1" /></g><g transform="translate(129.395781 111.648837) rotate(83.215452) scale(41.197283 30.401190)"><ellipse fill="#000" fill-opacity=".501961" cx="0" cy="0" rx="1" ry="1" /></g><g transform="translate(70.187936 129.643245) rotate(28.754554) scale(38.460110 25.551753)"><ellipse fill="#525252" fill-opacity=".501961" cx="0" cy="0" rx="1" ry="1" /></g></g></svg>